<?xml version="1.0" encoding="utf-8"?>
<!-- Generator: Adobe Illustrator 15.0.2, SVG Export Plug-In . SVG Version: 6.00 Build 0)  -->
<!DOCTYPE svg PUBLIC "-//W3C//DTD SVG 1.1//EN" "http://www.w3.org/Graphics/SVG/1.1/DTD/svg11.dtd">
<svg version="1.1" id="Layer_x5F_www.ABC-color.com"
	 xmlns="http://www.w3.org/2000/svg" xmlns:xlink="http://www.w3.org/1999/xlink" x="0px" y="0px" width="822px" height="567px"
	 viewBox="0 0 822 567" enable-background="new 0 0 822 567" xml:space="preserve">
<rect fill="#FFFFFF" width="822" height="567"/>
<polyline fill="none" stroke="#000000" points="16.4,539.9 17.7,547.9 19.6,540 21.4,547.9 22.8,539.9 "/>
<polyline fill="none" stroke="#000000" points="24.2,540 25.5,547.8 27.3,539.9 28.8,547.8 30.5,539.9 "/>
<polyline fill="none" stroke="#000000" points="31.8,539.9 33.1,547.6 34.9,539.9 36.5,547.6 37.9,539.9 "/>
<line fill="none" stroke="#000000" x1="51.4" y1="536.6" x2="51.4" y2="548.2"/>
<line fill="none" stroke="#000000" x1="62.1" y1="544" x2="64" y2="544"/>
<polyline fill="none" stroke="#000000" points="77.4,536.5 77.4,548.3 80.2,548.3 "/>
<path fill="none" stroke="#000000" d="M69.4,546.8c-0.3,0.8-0.9,1.3-1.4,1.3c-1.1,0-1.9-1.8-1.9-4c0-2.199,0.9-4,1.9-4
	c0.7,0,1.2,0.7,1.6,1.7"/>
<path fill="none" stroke="#000000" d="M72.5,548.3c-0.9,0-1.7-1.899-1.7-3.8c0-2.2,0.9-4,1.9-4s1.9,1.8,1.9,4s-0.6,3.7-1.4,3.7"/>
<path fill="none" stroke="#000000" d="M60.3,546.6c-0.4,0.801-0.9,1.301-1.4,1.301c-1.1,0-1.9-1.801-1.9-4c0-2.2,0.9-4,1.9-4
	c0.7,0,1.2,0.699,1.6,1.699"/>
<path fill="none" stroke="#000000" d="M51.4,541.8c0.3-0.6,1.3-0.6,1.8-0.6c0.7,0,1.7,1,1.7,3.3c0,1.3,0,2.3-0.9,2.9
	c-0.2,0.199-0.8,0.399-1.1,0.399"/>
<path fill="none" stroke="#000000" stroke-width="1.0581" d="M45.1,540.5c0,0,3.6-3.2,3.3,2.4c0,0-0.1,3.5,0.1,4.399
	c0.1,0.4,0.9,0.4,0.9,0.4"/>
<path fill="none" stroke="#000000" d="M40.9,547.9c0.7,0,0.7-1.101,0-1.101C40.2,546.8,40.2,547.9,40.9,547.9L40.9,547.9z"/>
<path fill="none" stroke="#000000" d="M82.2,548.5c-0.8,0-1.2-2.2-1.2-4c0-2.2,0.9-4,1.9-4s1.9,1.8,1.9,4s-0.9,4-1.9,4"/>
<line fill="none" stroke="#000000" x1="86.7" y1="539.9" x2="86.7" y2="548.7"/>
<path fill="none" stroke="#000000" d="M90.1,541.1c0,0-2.2-2.3-3.4,1.4"/>
<line fill="none" stroke="#000000" x1="107.9" y1="540.3" x2="107.9" y2="548.8"/>
<path fill="none" stroke="#000000" d="M111.6,548.8v-6c0,0-1.5-3.899-3.7,0"/>
<path fill="none" stroke="#000000" d="M115,548.8v-6.1c0,0-1-3.601-3.5-0.2"/>
<path fill="none" stroke="#000000" d="M99.3,546.9c-0.3,0.8-0.9,1.3-1.4,1.3c-1.1,0-1.9-1.8-1.9-4s0.9-4,1.9-4
	c0.7,0,1.2,0.7,1.6,1.7"/>
<path fill="none" stroke="#000000" d="M102.9,548.1c-1.1-0.5-2.2-7.699,0.9-7.899c1.1-0.101,1.9,1.8,1.9,4s-0.9,4-1.9,4"/>
<path fill="none" stroke="#000000" d="M92.4,548.6c0.7,0,0.7-1.1,0-1.1C91.7,547.5,91.7,548.6,92.4,548.6L92.4,548.6z"/>
<path fill="none" stroke="#000000" d="M48.4,544.4c-0.3-0.601-0.6-1.4-1.7-1.4c-0.7,0-1.6,0.1-1.6,2.4c0,1.3,0.5,1.8,0.9,2
	c0.2,0.1,0.8,0.399,1.1,0.399"/>
<g id="XMLID_2_">
	<g>
		<path fill="#8B7C61" d="M747.5,189.4c0-2,1.5-2.4,2.9-2.2c2.199,0.3,3.399,0.8,3.6,2.4c-0.2,0.8-0.4,1.5-0.6,2.1
			c-0.9,1-2.5,1.4-3.4,1.4C748.6,193,747.5,191.4,747.5,189.4z"/>
		<path fill="#A8A195" d="M708.5,112.4c0,0-1.2-2.7-3.5-7.1c3.3-0.1,13.2-3,36.8-26.6c0,0,7.3-1.5,4.101,10.3c0,0-9,30.1-26,30.1
			l-0.301,0.3C716.7,117.1,713,114.8,708.5,112.4z"/>
		<path fill="#FFFFFF" d="M741.7,203.6c0,0,0-0.1,0-0.3c0-0.1,0-0.2,0-0.3C741.8,203.2,741.8,203.4,741.7,203.6z"/>
		<path fill="#BC9C6B" d="M735.2,215c3-1.5,5.3-5.1,6.6-11.6c0,0.1,0,0.2,0,0.3c-0.2,2.1-0.5,9.3,3.3,11.1l0,0
			c-5.899,4-9.1,1.2-9.6,0.7L735.2,215z"/>
		<path fill="#C3C2BF" d="M741.7,203.6c0.3,0.7,5.3-10,8.3-10.6c1,0,2.6-0.5,3.4-1.4c-0.801,2.2-1.801,3.6-1.801,3.6
			c3.2,8.2,0.7,15-2.3,19.4c-1.8,0.6-3.2,0.6-4.3,0.1C741.3,213,741.6,205.8,741.7,203.6z"/>
		<path fill="#262A49" d="M734,151.9c-1.2-0.7-9.8-6.4-0.7-15.7l0.2-0.1c1.6,1.5,2.7,4.6,2.7,8.2C736.2,147.5,735.3,150.3,734,151.9
			z"/>
		<path fill="#8B7C61" d="M728.8,192.3c-3.6,0-4.1-1.1-4.1-3.3s0.1-1.8,3.7-1.8c3.6,0,3.3,0,5.699,1.5c0.7,0.4,0.7,1,0.301,1.6
			C733.6,191.3,731.2,192.3,728.8,192.3z"/>
		<path fill="#E6E6E8" d="M731.3,153.4c-2.7,0-4.899-4.1-4.899-9.2c0-2.6,0.6-4.9,1.5-6.6c0.899-1.6,2.1-2.6,3.399-2.6
			c0.8,0,1.5,0.4,2.2,1l-0.2,0.1c-9.1,9.2-0.5,15,0.7,15.7C733.2,152.9,732.3,153.4,731.3,153.4z"/>
		<path fill="#A8A195" d="M699.5,280.2c-8.1-3.7-9.8-47.6-9.8-47.6c4-13.6-0.601-23-0.8-23.5c0.6,0.3,19.699,10,35.8,13.3
			c-1.5,6,4.1,26.3,4.1,26.3c-4-2.2-12.7-17.1-13-17.6c2.4,5.2,6.5,36.6,3.3,33c-3.3-3.7-6.5-14.7-6.5-14.7
			c0,7.3,3.301,28.6,3.301,28.6c-1.601-2.2-6.5-11-6.5-11c-0.801,9.5,4.899,27.8,4.899,27.8c0,7-9-17.6-9.7-19.6c0-0.1,0-0.1,0-0.1
			v0.1c6.101,20.1-6,33-7.3,34.2C702.8,303.5,699.5,280.2,699.5,280.2z"/>
		<path fill="#262A49" d="M677.6,154.9c-3.6,0-6.5-3.8-6.5-8.4c0-4.7,2.9-8.4,6.5-8.4c3.601,0,6.5,3.8,6.5,8.4
			S681.2,154.9,677.6,154.9z"/>
		<path fill="#E6E6E8" d="M677.6,138c-3.6,0-6.5,3.8-6.5,8.4s2.9,8.4,6.5,8.4c3.601,0,6.5-3.8,6.5-8.4S681.2,138,677.6,138z
			 M670.2,158.6c-4-4-6.5-13.2-13.8-17.6c0,0,17.1-7.3,23.6-4.4c0,0,9.8,14.7,13,18.3C693,154.9,673.4,161.8,670.2,158.6z"/>
		<path fill="#8B7C61" d="M624.7,23c-4.101-6.6,2.399-7.3,2.399-7.3c6,1.2,12,4.1,17.9,8.3c5.3,3.8,10.5,8.5,15.5,13.8
			c20.5,21.8,37.5,53.5,44.6,67.6c2.2,4.5,3.5,7.1,3.5,7.1s-15.5,0.7-19.5,3.7l-13-17.6C668.6,65.5,624.7,23,624.7,23z"/>
		<path fill="#8B7C61" d="M572.6,56c-11.399-5.1-6.5-10.3-6.5-10.3c3.2-1.5,7-2,11.2-1.9c8.4,0.3,18.4,3.5,28.8,8.3
			c1.801,0.8,3.601,1.7,5.4,2.6C643.1,70.6,676,98.4,676,98.4l13,17.6c-4.1-2.9-12.2,5.1-12.2,5.1c-3.3-2.2-17.1-6.2-17.1-6.2h-0.3
			c0.199-0.7,0.3-1.1,0.3-1.1C630.4,72.1,572.6,56,572.6,56z"/>
		<path fill="#CDC742" d="M611.7,365c9.3,1.4,17,4.7,17,4.7c-1.601,8.1-14.7,6.2-14.7,6.2c0-1.7-1-3.2-2.5-4l0,0V365.3L611.7,365z"
			/>
		<path fill="#DED747" d="M605.1,364.4c-8-0.2-16.3,1.8-21.199,8.899c0,0,2.399-44.7,9.8-46.899l16.2-5.9l0,0c0,0,0.199,0,0.699,0
			c2.7,0.5,13.101,5.3,18.101,49.1c0,0-7.7-3.3-17-4.699C609.6,364.7,607.3,364.5,605.1,364.4z"/>
		<path fill="#505052" d="M610,320.5c-4.9,0-14.6-27.1-14.6-27.1s5.399-7.301,12.3-16.601l3,43.7C610.3,320.5,610,320.5,610,320.5z"
			/>
		<path fill="#8B7C61" d="M605.1,364.4c2.2,0,4.4,0.3,6.601,0.6l-0.101,0.3v6.601l0,0c-0.8-0.5-1.8-0.7-2.8-0.7
			c-2.5,0-4.5,1.5-5.1,3.6L605.1,364.4L605.1,364.4z"/>
		<path fill="#8B7C61" d="M603.7,374.7c0.6-2.101,2.7-3.601,5.1-3.601c1,0,2,0.301,2.8,0.7c1.5,0.8,2.5,2.3,2.5,4
			c0,2.601-2.399,4.8-5.3,4.8c-2.899,0-5.3-2.1-5.3-4.8L603.7,374.7z"/>
		<path fill="#C3C2BF" d="M724.8,189c0,2.2,0.5,3.3,4.101,3.3c2.3,0,4.699-1,5.6-2.1c0.4-0.6,0.4-1.2-0.3-1.6
			c-2.4-1.5-2.101-1.5-5.7-1.5C724.8,187.2,724.8,186.8,724.8,189z M656.4,141c7.3,4.4,9.899,13.5,13.8,17.6
			c3.1,3.2,22.8-3.7,22.8-3.7c-3.3-3.7-13-18.3-13-18.3C673.5,133.6,656.4,141,656.4,141z M645.8,221.6c0,0,0.2,1.5,0.601,3.8
			C646.4,223.8,646.2,222.5,645.8,221.6z M595.4,293.4C550.6,214.3,572.6,185,572.6,185l35-19.8c8.9,0,25.2-30.8,25.2-30.8
			S618.2,96.3,594.5,86c8.1-8.8,27.7,16.9,27.7,16.9l30.899,17.6c3.801,1.7,5.601-3.2,6.301-5.5h0.3c0,0,13.8,4,17.1,6.2
			c0,0,8.101-8.1,12.2-5.1c4.1-2.9,19.5-3.7,19.5-3.7c4.6,2.4,8.2,4.7,11.1,6.9c11.601,8.8,11.601,15.9,11.601,15.9
			c-1.3,0-2.5,1-3.4,2.6c-0.899,1.7-1.5,4-1.5,6.6c0,5.1,2.2,9.2,4.9,9.2l13,16.9c10.1,6.9,10.8,14.3,9.7,19.2
			c-0.2-1.6-1.4-2-3.601-2.4c-1.3-0.2-2.899,0.2-2.899,2.2s1.1,3.7,2.399,3.7c-2.899,0.7-7.899,11.4-8.3,10.6c0-0.3,0-0.5,0-0.5
			c0,0.1,0,0.2,0,0.3c-1.2,6.5-3.6,10.1-6.6,11.6l0.3,0.5c0.5,0.5,3.7,3.3,9.6-0.7l0,0c1.101,0.5,2.5,0.6,4.3-0.1
			c-2.3,3.5-5,5.4-5.399,5.4v0.4c-3.8,3.6-11.101,3.6-19.2,2c-16.1-3.3-35.2-13-35.8-13.3l0,0c-4.101-3.7-26.9,1.5-26.9,1.5
			c7.3,7.3,1.3,29.9,0.8,25.6c-0.8-7.3-9.8-22-9.8-22c3.3,13.9-2.399,34.5-2.399,34.5c-1.2-4.3-3.301-17-4.301-23.4
			c0,10.8-8.699,34.4-8.699,34.4c-0.801-8.8-1.601-19-1.601-19c-2.5,1.8-17.399,21.4-28.399,36.2
			C600.8,286.1,595.4,293.4,595.4,293.4z"/>
		<path fill="#CDC8C1" d="M594.5,86c23.6,10.3,38.3,48.4,38.3,48.4c-7.3-2.2-34.2-22.7-34.2-22.7C584,88.2,594.5,86,594.5,86z"/>
		<path fill="#CDC742" d="M603.5,375.9c-4.1,1.8-19.5-2.601-19.5-2.601c4.9-7.1,13.1-9.1,21.2-8.899v0.1l-1.5,10.2
			C603.6,375.1,603.5,375.5,603.5,375.9z"/>
		<path fill="#505052" d="M585.6,308.8c0,0-47.199-75.5-27.699-116.5L572.6,185c0,0-22,29.3,22.801,108.5c0,0,9.8,27.1,14.6,27.1
			l0,0c-0.9,0.2-14.7,3.7-16.2,5.9L585.6,308.8z"/>
		<path fill="#505052" d="M518.9,523.6c0,0-1.101-3.5-2.601-8.8h0.101c0,0,15.5-0.7,17.899-10.3c0,0-0.2-1.4-0.5-3.6h0.5
			c4.101-0.7,12.2,20.5,12.2,20.5c-3.3,2.199-7.3-1.5-7.3-1.5s-5-5.101-4.101-2.2c2.5,7.3,5.7,11,5.7,11
			c-2.1,3.1-15.7-0.101-19.899-1.101L518.9,523.6z"/>
		<path fill="#505052" d="M484.9,523.8c1.699,2,14.399,15.7,34.8,3.4c0,0,0.5,0.1,1.2,0.3l7.699,15.1c-0.8,7.301-8.1,3.7-8.1,3.7
			l-4.9-9.5l0.801,9.5c-1.601,8.8-15.5,5.9-15.5,5.9c-12.2,0.7-17.9-20.5-17.9-20.5L484.9,523.8z"/>
		<path fill="#A8A195" d="M516.3,514.8c-4.1-14.399-11.399-41.7-9.7-45.5c0,0,9.801-30.8,3.301-37.399c0,0,3.3-13.9,4.1-29.301
			c0,0,4.9-23.899,20.1-38c1.601-1.5,1.301,1.5,0,6.4c-3,11.6-11.1,33.8-11.1,33.8c9.8,25.7,1.6,31.5,1.6,31.5
			C522.2,443.6,527,472.9,527,472.9c3.2,2.8,5.8,20.3,6.9,27.899c0.3,2.2,0.5,3.601,0.5,3.601c-2.4,9.5-17.9,10.3-17.9,10.3
			L516.3,514.8z"/>
		<path fill="#D2C9B8" d="M156.7,414.2c-4.3-11.101-9.4-20.4-9.4-21.8c21.4-16.4,50.3-38,56.4-39.5c0.2,0,0.4-0.101,0.5-0.101
			c0,0,8.3-5.7,48.1,10.4l-0.1,0.2c-2.4,24.899-26.4,47.6-26.4,47.6c-5.3,5.8-10.2,9.3-14.6,11.4c0-0.101,0.1-0.2,0.1-0.301
			c-10.5,3.9-17.5,2.101-20.8,0.7c-1.4-0.6-2.1-1.2-2.1-1.2c-0.9,1.801-2.4,2.7-4.5,3.5c-0.2,0.101-0.3,0.101-0.5,0.2
			c-2.3,0.8-5.1,1.601-8.5,2.9C167.6,431.2,157.1,415.3,156.7,414.2z"/>
		<path fill="#505052" d="M213.7,515.9c0,0-24.8,0.399-35.4-28.601c0,0,25.6,6.601,36.2-7.3c0,0,22.4,21.3,16.7,29.3
			c0,0-7.7,1.5-10.2-0.7C221,508.5,217.7,519.2,213.7,515.9z"/>
		<path fill="#FFFFFF" d="M190.6,422.8c3.3,1.4,10.3,3.2,20.8-0.7c0,0.101-0.1,0.2-0.1,0.301c-11.8,5.699-19.7,0.899-19.7,0.899
			c-4.3,0.8-5.3,1-7.6,1.8c2.1-0.8,3.6-1.8,4.5-3.5C188.4,421.7,189.1,422.2,190.6,422.8z"/>
		<path fill="#A8A195" d="M172.1,466.8c3.7-1.5,4.9-13.899,4.9-13.899l-4.1-0.4c4.7-2.8,2.3-22.7,2-24.1c0.5-0.2,3.8-1,4.3-1.2
			c1.9-0.8,3.2-1.3,4.2-1.7c0.2-0.1,0.4-0.1,0.5-0.2c2.3-0.8,3.3-1,7.6-1.8c0,0,7.9,4.7,19.7-0.9c-14.4,31.4,3.2,57.5,3.2,57.5
			c-10.6,13.9-36.2,7.301-36.2,7.301l-0.4-11.4l-7.4,2.5c3.2-1.4,7-13.5,7-13.5L172.1,466.8z"/>
		<path fill="#FFFFFF" d="M183.4,425.4c-1,0.399-2.3,0.899-4.2,1.699c-0.5,0.2-3.8,1-4.3,1.2C178.3,427,181.2,426.3,183.4,425.4z"/>
		<path fill="#A8A195" d="M112,213.5l-0.8-0.2c-5.1-2.1-11.4-8.9-11.4-8.9l7.7,0.7c-9-3.7-10.6-13.6-10.6-13.6l6.6,4.7
			c0.5,0.5,1,0.9,1.6,1.1l-1.6-1.1c-3.6-3.4-5.3-11.2-5.7-13.4c1,3.2,10.1,10.1,10.1,10.1s0,0,0-0.1l0.2-0.2
			c0.9,1.6,6.1,9.8,12.3,10l0.1-2.4c-3.9-2.6-9-13.1-10.2-15.4c0.5,0.4,0.9,0.7,0.9,0.7c-8-20.1,1.2-30.3,1.6-30.8
			c-2.4,3.7,0.4,19.4,0.4,19.4c1.6-24.9,11.8-27.9,11.8-27.9c-4.9,3.7-3.3,16.9-3.3,16.9c12.2-28.9,17.1-24.9,17.1-24.9
			c-6.1,5.5-2.8,14.3-2.8,14.3c2.8-14.1,17.4-22.1,17.9-22.4l-4.1,7.7c5.7-6.2,15.1-9.9,15.1-9.9l-10.6,14.3
			c-35,46.6,1.9,51.8,9.9,52.3c-4.6,2.1-31.8,14.6-35.1,23.7c-3.3,2.7-9,3.9-9,3.9l-2.4,0.2c-7.4-1.4-11-10.5-11-10.5l4.5,1.2
			c0.4,0.1,0.7,0.3,1,0.4l0,0c0.5,0.1,0.9,0.2,1.4,0.3L112,213.5L112,213.5z"/>
		<path fill="#A8A195" d="M107.8,193c-7.3-10.6-5.6-19.4-5.6-19.4c0,4.2,5.9,9.5,8.1,11.4c1.1,2.4,6.2,12.8,10.2,15.4l-0.1,2.4
			c-6.2-0.2-11.3-8.5-12.3-10L107.8,193z"/>
		<path fill="#505052" d="M111.1,509.6c6.1,4.4,4.5,11.4,4.5,11.4c-2.4,1.8-12.6,0-12.6,0l-0.4,6.2C63.1,539.3,63.9,499,63.9,499
			s29.7,6.2,34.6-7L111.1,509.6z"/>
		<path fill="#C3C2BF" d="M117.6,286.8c-8.5-23.8,1.2-52,1.2-52c-0.6-5.6-4.3-8.6-5.6-9.6c2.3,0.9,6.8-2.5,6.8-2.5
			c-0.8,0-1.6,0-2.4-0.2l2.4-0.2c0,0,5.7-1.2,9-3.9c3.3-9.1,30.5-21.6,35.1-23.7c0.9,0.1,1.5,0.1,1.5,0.1
			c50.5-31.5,100.1-15.4,100.1-15.4c85.5,30.8,157.899,26.8,157.899,26.8c14.2-13.9,76.9-13.9,76.9-13.9c9.8,4.4,57.4,0,57.4,0
			c-19.5,41,27.699,116.5,27.699,116.5c-4.1,22-51.3,62.3-51.3,62.3L534,371c1.3-4.9,1.6-7.9,0-6.4c-15.2,14-20.1,38-20.1,38
			C513.1,418,509.8,431.9,509.8,431.9c6.5,6.6-3.3,37.399-3.3,37.399c-1.8,3.8,5.6,31.101,9.7,45.5c1.5,5.3,2.6,8.8,2.6,8.8l2,4
			c-0.8-0.199-1.2-0.3-1.2-0.3c-20.399,12.2-33.1-1.399-34.8-3.399l1.4-6.101l-7.3,2.2l3.3-8.1l-8.101,6.6l4.101-8.8
			c13-18.3,3.3-48.4,3.3-48.4c-5.7-12.5-1.6-22-1.6-22c-4.101-8.1-8.101-55-8.101-55l-6.899-2.2c-0.101,0.101-0.2,0.101-0.301,0.2
			c-6,4-47.8,10.101-47.8,10.101c-6.899,3.3-98.1,0.399-150.2-23.101c-5.1-2.3-9.8-4.3-14.1-6.1c-39.8-16.101-48.1-10.4-48.1-10.4
			c-0.1,0-0.3,0-0.5,0.101c-6.1,1.5-35,23.1-56.4,39.5c-13.5,10.3-24,18.699-24,18.699c-6.1,3.7-18.3,27.101-18.3,27.101
			c-5.3,4.8-9.8,28.6-9.8,28.6c-3.3,5.9,3.3,25.3,3.3,25.3c-4.9,13.2-34.6,7-34.6,7c-4.1,0.4-6.5-1.5-6.5-1.5
			c3.7,0,6.5-8.399,6.5-8.399c-6.5,4.8-8.6,0.7-8.6,0.7c9-2.9,20.4-52,20.4-52c-1.8,2.899-8.1,1.5-9.5,1.199
			c1.9-0.1,9.9-9.199,9.9-9.199c-1.2,1.1-5.7,1.6-7.8,1.8c2.5-1.3,7.4-8.4,7.4-8.4c-6.5,4-4.5,1.101-4.5,1.101
			c4.5-1.101,7.3-9.2,7.3-9.2c-6.1-5.9,2.4-16.9,2.4-16.9c27.7-19.399,40.3-60.8,40.3-60.8C129,316.2,117.6,286.8,117.6,286.8z"/>
	</g>
	<g>
		<path fill="none" stroke="#000000" d="M632.8,134.4c-7.3-2.2-34.2-22.7-34.2-22.7C584,88.2,594.5,86,594.5,86"/>
		<path fill="none" stroke="#000000" d="M705,105.3c3.3-0.1,13.2-3,36.8-26.6c0,0,7.3-1.5,4.101,10.3c0,0-9,30.1-26,30.1l-0.301,0.3
			"/>
		<path fill="none" stroke="#000000" d="M659.4,115c0.199-0.7,0.3-1.1,0.3-1.1C630.4,72.1,572.6,56,572.6,56
			c-11.399-5.1-6.5-10.3-6.5-10.3c3.2-1.5,7-2,11.2-1.9c8.4,0.3,18.4,3.5,28.8,8.3c1.801,0.8,3.601,1.7,5.4,2.6
			C643.1,70.6,676,98.4,676,98.4"/>
		<path fill="none" stroke="#000000" d="M689,116.1l-13-17.6c-7.3-33-51.3-75.5-51.3-75.5c-4.101-6.6,2.399-7.3,2.399-7.3
			c6,1.2,12,4.1,17.9,8.3c5.3,3.8,10.5,8.5,15.5,13.8c20.5,21.8,37.5,53.5,44.6,67.6c2.2,4.5,3.5,7.1,3.5,7.1"/>
		<path fill="none" stroke="#000000" d="M754,189.5c-0.2,0.8-0.4,1.5-0.6,2.1"/>
		<path fill="none" stroke="#000000" d="M731.3,135.1c0.8,0,1.5,0.4,2.2,1"/>
		<path fill="none" stroke="#000000" d="M734,151.9c-0.8,1-1.7,1.5-2.7,1.5"/>
		<path fill="none" stroke="#000000" d="M733.5,136.1c1.6,1.5,2.7,4.6,2.7,8.2c0,3.2-0.9,6-2.2,7.6c-1.2-0.7-9.8-6.4-0.7-15.7
			L733.5,136.1z"/>
		<path fill="none" stroke="#000000" d="M684.1,146.5c0-4.7-2.899-8.4-6.5-8.4c-3.6,0-6.5,3.8-6.5,8.4s2.9,8.4,6.5,8.4
			C681.2,154.9,684.1,151.1,684.1,146.5z"/>
		<path fill="none" stroke="#000000" d="M697.2,309.5c5.6-6,2.3-29.2,2.3-29.2c-8.1-3.7-9.8-47.6-9.8-47.6c4-13.6-0.601-23-0.8-23.5
			"/>
		<path fill="none" stroke="#000000" d="M704.5,275.2c6.1,20.1-6,33-7.3,34.2c0,0-0.101,0-0.101,0.1"/>
		<path fill="none" stroke="#000000" d="M704.5,275.2c0-0.1,0-0.1,0-0.1C704.4,275.2,704.4,275.2,704.5,275.2z"/>
		<path fill="none" stroke="#000000" d="M724.7,222.5c-1.5,6,4.1,26.3,4.1,26.3c-4-2.2-12.7-17.1-13-17.6c2.4,5.2,6.5,36.6,3.3,33
			c-3.3-3.7-6.5-14.7-6.5-14.7c0,7.3,3.301,28.6,3.301,28.6c-1.601-2.2-6.5-11-6.5-11c-0.801,9.5,4.899,27.8,4.899,27.8
			c0,7-9-17.601-9.7-19.601"/>
		<line fill="none" stroke="#000000" x1="607.6" y1="276.9" x2="610.7" y2="320.6"/>
		<path fill="none" stroke="#000000" d="M646.4,225.4c0-1.6-0.2-2.8-0.601-3.8C645.8,221.6,646,223.1,646.4,225.4z"/>
		<path fill="none" stroke="#000000" d="M572.6,185l35-19.8c8.9,0,25.2-30.8,25.2-30.8S618.2,96.3,594.5,86
			c8.1-8.8,27.7,16.9,27.7,16.9l30.899,17.6c3.801,1.7,5.601-3.2,6.301-5.5h0.3c0,0,13.8,4,17.1,6.2c0,0,8.101-8.1,12.2-5.1
			c4.1-2.9,19.5-3.7,19.5-3.7c4.6,2.4,8.2,4.7,11.1,6.9c11.601,8.8,11.601,15.9,11.601,15.9c-1.3,0-2.5,1-3.4,2.6
			c-0.899,1.7-1.5,4-1.5,6.6c0,5.1,2.2,9.2,4.9,9.2l13,16.9c10.1,6.9,10.8,14.3,9.7,19.2c-0.2-1.6-1.4-2-3.601-2.4
			c-1.3-0.2-2.899,0.2-2.899,2.2s1.1,3.7,2.399,3.7c1,0,2.601-0.5,3.4-1.4c-0.8,2.2-1.8,3.6-1.8,3.6c3.199,8.2,0.699,15-2.301,19.4
			c-2.3,3.5-5,5.4-5.399,5.4v0.4c-3.8,3.6-11.101,3.6-19.2,2c-16.1-3.3-35.2-13-35.8-13.3l0,0c-4.101-3.7-26.9,1.5-26.9,1.5
			c7.3,7.3,1.3,29.9,0.8,25.6c-0.8-7.3-9.8-22-9.8-22c3.3,13.9-2.399,34.5-2.399,34.5c-1.2-4.3-3.301-17-4.301-23.4
			c0,10.8-8.699,34.4-8.699,34.4c-0.801-8.8-1.601-19-1.601-19c-2.5,1.8-17.399,21.4-28.399,36.2c-6.9,9.2-12.301,16.6-12.301,16.6"
			/>
		<path fill="none" stroke="#000000" d="M734.1,188.6c-2.399-1.5-2.1-1.5-5.699-1.5c-3.601,0-3.7-0.4-3.7,1.8c0,2.2,0.5,3.3,4.1,3.3
			c2.3,0,4.7-1,5.601-2.1C734.8,189.6,734.8,189,734.1,188.6z"/>
		<path fill="none" stroke="#000000" d="M693,154.9c-3.3-3.7-13-18.3-13-18.3c-6.5-2.9-23.6,4.4-23.6,4.4
			c7.3,4.4,9.899,13.5,13.8,17.6C673.4,161.8,693,154.9,693,154.9z"/>
		<path fill="none" stroke="#000000" d="M557.9,192.3L572.6,185c0,0-22,29.3,22.801,108.5c0,0,9.8,27.1,14.6,27.1"/>
		<path fill="none" stroke="#000000" d="M610,320.6c-0.9,0.2-14.7,3.7-16.2,5.9l-8.1-17.6"/>
		<path fill="none" stroke="#000000" d="M628.7,369.7c-1.601,8.1-14.7,6.2-14.7,6.2"/>
		<path fill="none" stroke="#000000" d="M611.6,371.9c1.5,0.8,2.5,2.3,2.5,4c0,2.6-2.399,4.8-5.3,4.8c-2.899,0-5.3-2.101-5.3-4.8
			l0.2-1.2"/>
		<path fill="none" stroke="#000000" d="M611.7,365l-0.101,0.3v6.601l0,0c-0.8-0.5-1.8-0.7-2.8-0.7c-2.5,0-4.5,1.5-5.1,3.6"/>
		<path fill="none" stroke="#000000" d="M605.1,364.4L605.1,364.4l-1.5,10.3c-0.1,0.399-0.199,0.8-0.199,1.2
			c-4.101,1.8-19.5-2.601-19.5-2.601"/>
		<path fill="none" stroke="#000000" d="M610,320.5c0,0,0.2,0,0.7,0c2.7,0.5,13.1,5.3,18.1,49.1c0,0-7.7-3.3-17-4.699
			c-2.1-0.301-4.3-0.5-6.6-0.601c-8-0.2-16.3,1.8-21.2,8.9c0,0,2.4-44.7,9.8-46.9L610,320.5L610,320.5z"/>
		<path fill="none" stroke="#000000" d="M520.9,527.5l7.699,15.1c-0.8,7.301-8.1,3.7-8.1,3.7l-4.9-9.5l0.801,9.5
			c-1.601,8.8-15.5,5.9-15.5,5.9c-12.2,0.7-17.9-20.5-17.9-20.5l1.8-7.8"/>
		<path fill="none" stroke="#000000" d="M533.9,500.9h0.5c4.1-0.7,12.199,20.5,12.199,20.5c-3.3,2.199-7.3-1.5-7.3-1.5
			s-5-5.101-4.1-2.2c2.5,7.3,5.7,11,5.7,11c-2.101,3.1-15.7-0.101-19.9-1.101"/>
		<path fill="none" stroke="#000000" d="M534,371.1c-3,11.601-11.1,33.801-11.1,33.801c9.8,25.699,1.6,31.5,1.6,31.5
			c-2.4,7.3,2.4,36.6,2.4,36.6c3.199,2.8,5.8,20.3,6.899,27.9c0.3,2.199,0.5,3.6,0.5,3.6C531.9,514,516.4,514.8,516.4,514.8H516.3"
			/>
		<path fill="none" stroke="#000000" d="M178.3,487.3l-0.4-11.399l-7.4,2.5c3.2-1.4,7-13.5,7-13.5l-5.3,1.8
			c3.7-1.5,4.9-13.9,4.9-13.9L173,452.4c4.7-2.801,2.3-22.7,2-24.101"/>
		<path fill="none" stroke="#000000" d="M211.3,422.5c-14.4,31.4,3.2,57.5,3.2,57.5"/>
		<path fill="none" stroke="#000000" d="M178.3,487.3c0,0,25.6,6.601,36.2-7.3c0,0,22.4,21.3,16.7,29.3c0,0-7.7,1.5-10.2-0.7
			c0,0-3.3,10.601-7.3,7.301C213.7,515.9,188.8,516.2,178.3,487.3z"/>
		<path fill="none" stroke="#000000" d="M98.5,492l12.6,17.6c6.1,4.4,4.5,11.4,4.5,11.4c-2.4,1.8-12.6,0-12.6,0l-0.4,6.2
			C63.1,539.3,63.9,499,63.9,499"/>
		<path fill="none" stroke="#000000" d="M252.4,363.2l-0.1,0.2c-2.4,24.899-26.4,47.6-26.4,47.6c-5.3,5.8-10.2,9.3-14.6,11.4
			c-11.8,5.699-19.7,0.899-19.7,0.899c-4.3,0.8-5.3,1-7.6,1.8c-0.2,0.101-0.3,0.101-0.5,0.2c-1,0.4-2.3,0.9-4.2,1.7
			c-0.5,0.2-3.8,1-4.3,1.2c-7.4,2.899-17.8-13.101-18.2-14.2c-4.3-11.1-9.4-20.4-9.4-21.8"/>
		<path fill="none" stroke="#000000" d="M112.7,154.9L112.7,154.9c-2.4,3.7,0.4,19.4,0.4,19.4c1.6-24.9,11.8-27.9,11.8-27.9
			c-4.9,3.7-3.3,16.9-3.3,16.9c12.2-28.9,17.1-24.9,17.1-24.9c-6.1,5.5-2.8,14.3-2.8,14.3c2.8-14.1,17.4-22.1,17.9-22.4l-4.1,7.7
			c5.7-6.2,15.1-9.9,15.1-9.9l-10.6,14.3c-35,46.6,1.9,51.8,9.9,52.3"/>
		<path fill="none" stroke="#000000" d="M103.5,196.3c-3.6-3.4-5.3-11.2-5.7-13.4c1,3.2,10.1,10.1,10.1,10.1s0,0,0-0.1
			c-7.3-10.6-5.6-19.4-5.6-19.4c0,4.2,5.9,9.5,8.1,11.4c0.5,0.4,0.9,0.7,0.9,0.7c-8-20.1,1.2-30.3,1.6-30.8"/>
		<path fill="none" stroke="#000000" d="M103.5,196.3c0.5,0.5,1,0.9,1.6,1.1L103.5,196.3z"/>
		<path fill="none" stroke="#000000" d="M112,213.5l-0.8-0.2c-5.1-2.1-11.4-8.9-11.4-8.9l7.7,0.7c-9-3.7-10.6-13.6-10.6-13.6
			l6.6,4.7"/>
		<path fill="none" stroke="#000000" d="M112.2,213.6c0.5,0.1,0.9,0.2,1.4,0.3l-1.6-0.4"/>
		<path fill="none" stroke="#000000" d="M117.7,222.5c-7.4-1.4-11-10.5-11-10.5l4.5,1.2c0.4,0.1,0.7,0.3,1,0.4"/>
		<path fill="none" stroke="#000000" d="M117.7,222.5l2.4-0.2c0,0,5.7-1.2,9-3.9c3.3-9.1,30.5-21.6,35.1-23.7
			c0.9,0.1,1.5,0.1,1.5,0.1c50.5-31.5,100.1-15.4,100.1-15.4c85.5,30.8,157.9,26.8,157.9,26.8c14.2-13.9,76.899-13.9,76.899-13.9
			c9.801,4.4,57.4,0,57.4,0c-19.5,41,27.7,116.5,27.7,116.5c-4.101,22-51.3,62.3-51.3,62.3L534.1,371c1.301-4.9,1.601-7.9,0-6.4
			c-15.199,14-20.1,38-20.1,38c-0.8,15.4-4.1,29.301-4.1,29.301c6.5,6.6-3.301,37.399-3.301,37.399c-1.8,3.8,5.601,31.101,9.7,45.5
			c1.5,5.3,2.601,8.8,2.601,8.8l2,4c-0.801-0.199-1.2-0.3-1.2-0.3c-20.4,12.2-33.101-1.399-34.8-3.399l1.399-6.101L479,520l3.3-8.1
			l-8.1,6.6l4.1-8.8c13-18.3,3.3-48.4,3.3-48.4c-5.699-12.5-1.6-22-1.6-22c-4.1-8.1-8.1-54.999-8.1-54.999L465,382.1
			c-0.1,0.101-0.2,0.101-0.3,0.201c-6,4-47.8,10.1-47.8,10.1c-6.9,3.3-98.101,0.4-150.2-23.1c-5.1-2.301-9.8-4.301-14.1-6.101
			c-39.8-16.101-48.1-10.399-48.1-10.399c-0.1,0-0.3,0-0.5,0.1c-6.1,1.5-35,23.1-56.4,39.5c-13.5,10.3-24,18.699-24,18.699
			c-6.1,3.701-18.3,27.101-18.3,27.101c-5.3,4.8-9.8,28.6-9.8,28.6c-3.3,5.9,3.3,25.301,3.3,25.301c-4.9,13.199-34.6,7-34.6,7
			c-4.1,0.399-6.5-1.5-6.5-1.5c3.7,0,6.5-8.4,6.5-8.4c-6.5,4.8-8.6,0.7-8.6,0.7c9-2.9,20.4-52,20.4-52c-1.8,2.899-8.1,1.5-9.5,1.2
			c1.9-0.101,9.9-9.2,9.9-9.2c-1.2,1.1-5.7,1.6-7.8,1.8c2.5-1.3,7.4-8.4,7.4-8.4c-6.5,4-4.5,1.101-4.5,1.101
			c4.5-1.101,7.3-9.2,7.3-9.2c-6.1-5.899,2.4-16.899,2.4-16.899c27.7-19.4,40.3-60.801,40.3-60.801c7.7-21.3-3.7-50.6-3.7-50.6
			c-8.5-23.8,1.2-52,1.2-52c-0.6-5.6-4.3-8.6-5.6-9.6c2.3,0.9,6.8-2.5,6.8-2.5C119.2,222.7,118.4,222.7,117.7,222.5z"/>
		<path fill="none" stroke="#000000" d="M534.8,363.5c1.8-5.6,4.5-12.3,4.3-17.3"/>
		<path fill="none" stroke="#000000" d="M448.3,355.2c0,0,3.8,20.5,16.2,27.1c2.1,1.2,4.5,1.9,7.2,2"/>
		<path fill="none" stroke="#000000" d="M639.7,192.8c0,0,4.1,16.1,22.8,18.3"/>
		<path fill="none" stroke="#000000" d="M622.9,175.1c0,0-6.4-16.7-0.7-23.3"/>
		<path fill="none" stroke="#000000" d="M741.8,203.1c0,0.1,0,0.3,0,0.5c-0.2,2.1-0.5,9.3,3.3,11.1c1.101,0.5,2.5,0.6,4.301-0.1
			c0.1,0,0.199-0.1,0.3-0.1"/>
		<path fill="none" stroke="#000000" d="M700.1,192.6c0,0,0.101,0.2,0.4,0.5c3.1,3.8,23.4,27.5,34.7,21.9c3-1.5,5.3-5.1,6.6-11.6"/>
		<path fill="none" stroke="#000000" d="M734.3,190.1c0,0,0,0.1,0.101,0.1c1,1.1,8.1,9.4,7.399,12.8c0,0,0,0,0,0.1s0,0.2,0,0.3
			s0,0.2,0,0.3c0.3,0.7,5.3-10,8.3-10.6"/>
		<path fill="none" stroke="#000000" d="M639,26c0,0,4-2.2,6-2.1c0.2,0,0.4,0.1,0.6,0.1"/>
		<path fill="none" stroke="#000000" d="M645.9,33.6c0,0,4.899-4.2,6.899-2.7"/>
		<path fill="none" stroke="#000000" d="M652.1,41.6c0,0,3.801-4.6,8.4-3.9c0.2,0,0.4,0.1,0.6,0.1"/>
		<path fill="none" stroke="#000000" d="M657.8,50.5c0,0,6.101-5.7,10.2-3.4"/>
		<path fill="none" stroke="#000000" d="M663.5,57c0,0,7.8-5.7,9.8-2.7"/>
		<path fill="none" stroke="#000000" d="M670.8,67.7c0,0,8.2-4.2,10.2-2.3"/>
		<path fill="none" stroke="#000000" d="M676.1,76.9c0,0,5.7-5.4,8.601-3.4"/>
		<path fill="none" stroke="#000000" d="M679.8,84.9c0,0,9.8-5,11.8-2.3"/>
		<path fill="none" stroke="#000000" d="M680.6,95.6c0,0,10.601-8.4,15.9-3.8"/>
		<path fill="none" stroke="#000000" d="M687.2,102.9c0,0,7.3-6.1,13.899-1.9"/>
		<path fill="none" stroke="#000000" d="M690,109.4c0,0,14.3-3.4,15.1-1.1"/>
		<path fill="none" stroke="#000000" d="M577.8,43.2c0,0-0.2,0.2-0.6,0.6c-1.3,1.4-4.4,5-4.7,5.9"/>
		<path fill="none" stroke="#000000" d="M585.5,45.1c0,0-6.1,3.8-5.7,7.6"/>
		<path fill="none" stroke="#000000" d="M593.7,47.4c0,0-6.9,3.4-6.5,5.7"/>
		<path fill="none" stroke="#000000" d="M599.8,50.1c0,0-7.8,2.3-8.2,7.3"/>
		<path fill="none" stroke="#000000" d="M606.3,52c0,0-0.1,0-0.3,0.1c-1.8,0.7-10.2,4.2-9.4,5.6"/>
		<path fill="none" stroke="#000000" d="M611.7,54.7c0,0-0.101,0-0.3,0.1c-1.4,0.4-7.9,2.4-7.5,4.1"/>
		<path fill="none" stroke="#000000" d="M617,58.5c0,0-7.3,2.3-6.9,3.8"/>
		<path fill="none" stroke="#000000" d="M622.3,61.2c0,0-7.8,1.5-7.8,3.8"/>
		<path fill="none" stroke="#000000" d="M627.6,64.2c0,0-6.5,3.4-6.1,5"/>
		<path fill="none" stroke="#000000" d="M634.9,69.6c0,0-10.2,1.9-9,6.5"/>
		<path fill="none" stroke="#000000" d="M642.7,74.6c0,0-8.601,0.4-9.4,6.1"/>
		<path fill="none" stroke="#000000" d="M652.1,81.8c0,0-9,0.8-10.199,5.4"/>
		<path fill="none" stroke="#000000" d="M661.4,89.5c0,0-9.801-0.8-11,3.8"/>
		<path fill="none" stroke="#000000" d="M669.6,96c0,0-10.6,0.4-10.199,5"/>
		<path fill="none" stroke="#000000" d="M678.2,104.8c0,0-14.7,1.9-14.7,6.5"/>
		<path fill="none" stroke="#000000" d="M681.4,110.5c0,0-9.801,1.5-11,4.6"/>
		<path fill="none" stroke="#000000" d="M201.8,354.3c0,0,0.7-0.5,2-1.399c7.2-4.801,31.5-20.4,43.6-17.301"/>
		<path fill="none" stroke="#000000" d="M135.8,152.4c0,0-9.6,24.5-1,36.2"/>
		<path fill="none" stroke="#000000" d="M122.4,163.5c0,0-5.5,19.6,8.3,26.9"/>
		<path fill="none" stroke="#000000" d="M113.8,171.5c0,0,1,21.8,10.4,24"/>
		<path fill="none" stroke="#000000" d="M110,184.5c0,0,0.1,0.2,0.2,0.5c1.1,2.4,6.2,12.8,10.2,15.4c0.5,0.3,0.9,0.5,1.3,0.6"/>
		<path fill="none" stroke="#000000" d="M107.9,192.5c0,0,0,0.1,0.1,0.3c0.9,1.6,6.1,9.8,12.3,10c0.1,0,0.2,0,0.2,0"/>
		<path fill="none" stroke="#000000" d="M104.7,197.5c0,0,8.9,8.3,13,8.6"/>
		<path fill="none" stroke="#000000" d="M104.7,205.5c0,0,9.3,3.2,11.8,3.2"/>
		<path fill="none" stroke="#000000" d="M110.6,212.3c0,0,0.5,0.5,1.4,1.2l0,0c0.1,0,0.1,0.1,0.2,0.1l0,0c1.9,1.4,5.1,3.2,8.3,2"/>
		<path fill="none" stroke="#000000" d="M94.9,507.3c0,0,8.9,13.5,7.7,15.7"/>
		<path fill="none" stroke="#000000" d="M213.2,492c0,0,9.8,14.6,6.1,18.6"/>
		<path fill="none" stroke="#000000" d="M223.3,369.2c0,0-18.7,46.899-32.8,53.7c-0.9,0.399-1.8,0.699-2.6,0.8"/>
		<path fill="none" stroke="#000000" d="M657,128.2c0,0,9.2,5.1,9.2,8.8"/>
		<path fill="none" stroke="#000000" d="M664.8,127c-6.1-4.7,3.5,3.2,4,8.1"/>
		<path fill="none" stroke="#000000" d="M667.9,126.1c0,0,5.699,5.9,4.899,8.8"/>
		<path fill="none" stroke="#000000" d="M728.5,138.3c0,0-0.2-0.2-0.6-0.6c-1.7-1.6-6.4-5.7-8.4-4.5"/>
		<path fill="none" stroke="#000000" d="M728.2,135.4c0,0-6.5-11-8.101-8.8"/>
		<path fill="none" stroke="#000000" d="M701.6,189.5c0,0-0.199,2-1.1,3.6c-0.6,1-1.4,1.9-2.7,1.9"/>
		<path fill="none" stroke="#000000" d="M735.4,215.4L735.4,215.4c0.5,0.5,3.699,3.4,9.6-0.6"/>
	</g>
</g>
</svg>
